<svg id="Artwork" xmlns="http://www.w3.org/2000/svg" xmlns:xlink="http://www.w3.org/1999/xlink" viewBox="0 0 4468.9 2398.45"><defs><style>.cls-1{fill:#373f4c;}.cls-2{clip-path:url(#clip-path);}.cls-3{fill:url(#radial-gradient);}</style><clipPath id="clip-path" transform="translate(480.18 274.73)"><rect class="cls-1" width="100%" height="2000"/></clipPath><radialGradient id="radial-gradient" cx="1754.27" cy="924.49" r="1793.17" gradientUnits="userSpaceOnUse"><stop offset="0" stop-color="#bc9d5c"/><stop offset="0.25" stop-color="#fffba1"/><stop offset="0.56" stop-color="#bc9d5c"/><stop offset="1" stop-color="#826c45"/></radialGradient></defs><rect class="cls-1" x="480.18" y="274.73" width="3508" height="2000"/><g class="cls-2"><path class="cls-3" d="M3830.66,556.19l157.39-91.12.67-.39V279.05l-157.83-91.12V2.55l-1.35-.78V-180.87l-160.76-92.82-2.69,1.56h0l-156.71,90.61-158.74-91.77-.67-.4-159.41,92L3031.83-273.3l-.67-.38-158.08,90.74v0l-159.41-91.77-1.34,2.34-.68-1.17-159,91.27L2394-273.94l-.68-.39-159.85,92.8-.67-1.17L2074.7-91.82l-158.29-91.12-.61,1.07-.73-.42L1755-89.77l-.73-1.27L1752.45-90l-157.4-90.88-2.7,1.56h0L1435.64-88.67,1276.9-180.45l-.67-.39-159.41,92L958.09-180.45l-.67-.39L799.34-90.1h0L639.94-181.89l-1.34,2.34-.67-1.17L479-89.45,320.23-181.1l-.68-.38L159.7-88.68,159-89.85,1,1-157.32-90.1l-.62,1.07-.73-.42-160,92.52-.73-1.26L-480.18,94.62l.23,187.3,156.51,91.79-154.49,89.7.45.78h-2.7V650.08l160.75,92.66V922.16l-1.34.78V1107l-159.41,91.56v185.63h2.69l-.67,1.16,157.39,91v184.08L-478.16,1751l-.67.39v185.63l160.08,92.55h0l-.67,1.16,159.4,91.91,1.35-2.34.67,1.17L-.49,2030.7l-.12.21,159.41,91.77,1.35.77,160.75-92.54-.73-1.27,158.35-91.55,159.12,91.48-.62,1.07,159.41,92,1.35-2.34.67,1.17,157.39-90.74,159.4,92.17,1.35.78,160.75-92.43-.44-.77,157.84,91.63.86-1.48,1.15,2,159.74-91.45c6,3.74,23.86,14.06,77.36,44.94,39.85,23,79.7,46,79.7,46l.68.38,160.08-92.28.67-.39v-2.23l.09-.14.67,1.17,157.51-90.81-.12.2,159.41,91.77,1.34.78,160.76-92.55-.73-1.27,158.35-91.54,159.12,91.48-.62,1.07,159.41,92,1.34-2.33.68,1.17,157.39-90.74L3189,2030.1l1.35.77,160.75-92.42-.44-.77,157.83,91.63.86-1.48,1.16,2,159.74-91.45c6,3.73,23.86,14,77.35,44.94,39.86,23,79.71,46,79.71,46l.67.39L3988,1937.41l.68-.39V1751.4L3832,1660.66l156.71-90.22-.24-.4.24.13V1383l-158.06-91.12v-1.56l-159.41-92v-182l157.39-90.87-.68-1.17h2.7V740.27H3828l.68-1.17L3672.82,649l157.84-91.5ZM3671.48-269l155.36,89.69V.22l-155.36-89.7Zm-159.42,89,154-89V-86.37L3824,4.81,3669.9,93.44h0L3511.85,2.17l.22-182.13Zm313.44,187V187.66L3669.9,277.5v-181Zm-158.29,91v178l-156.49-90.22-2.69,4.67,156.38,90.16-153.9,89-159.19-91.76V98.21l1.34-.78v-1.3L3507.81,6.07ZM3509.15,1477.36l1.23.72.11.19.12-.06,153.68,89-157.84,91.4V1841l-155.36-90.33V1570.18l1.34-.78v-1.56Zm-156.72,87.37v-179.4l155.37-89.57V1475Zm156.72-274.42-1.35-.77h0l-155.37-89.62.23-184,155.14-90.07,158.06,91.9v181.92Zm-476.88,277.8,156.71-90h0l1.34-.77,155.37,89.7-158.06,91.39v182.12l-154-89V1568.11Zm0-3.11V1387.62l154,89ZM3189,1289.67l-156.71-90.61.23-182.45,155.14-89.93v180.94H3193V926.67L3347.27,1016l-.23,182.4Zm-314.77,367.21v-178.1l154,88.55Zm154-86.43V1750l-155.37,89.83v-179Zm-155.37-98.67v-177.9l.17-.1,153.86,89.16Zm-2.52-182.67-155.54-89.67V1015.85l154-89.18v180.6h5.39V926.67l153.2,88.56,2.39,1.38-.22,180.76h0ZM2232.53,1662v177.58l-155.36-89.7V1570.7l154,88.66v1.82Zm-1.34-186.54v180.83l-154-88.66v-1.7l-1.35-.78V1384l156.71-90.37,158.07,91.52v179l-156-90.09-.75,1.3Zm-318.9,547.36-150.69-86.87,150.69-87Zm-476.88-452.57,1.24.71.11.2.11-.07,153.69,89-157.84,91.39v182.36l-155.37-90.33V1663l1.35-.78v-1.56Zm-156.71,87.36V1478.18l155.36-89.58v179.27Zm156.71-274.41-1.34-.78h0l-155.36-89.62.23-184,155.14-90.06,158,91.89v181.92ZM958.54,1661l156.7-90h0l1.34-.77,155.37,89.7L1113.9,1751.3v182.12l-154-89.05V1661Zm0-3.11V1480.46l154,89Zm156.71-275.33L958.54,1291.9l.22-182.44,155.14-89.94v181h5.39v-181l154.25,89.29-.23,182.4ZM800.47,1749.73V1571.62l154,88.56Zm154-86.43v179.51l-155.36,89.83v-179Zm-155.36-98.67V1386.72l.16-.1,153.86,89.17ZM796.6,1382l-155.53-89.67V1108.69l154-89.17v180.6h5.39V1019.51l153.21,88.56,2.39,1.39-.23,180.76h0ZM158.8,1754.8v177.58L3.43,1842.68V1663.54l154,88.67V1754Zm-1.35-186.53V1749.1l-154-88.67v-1.7L2.09,1658V1476.88l156.71-90.36L316.86,1478v179l-156-90.09-.75,1.3ZM-3.18,1661.14l-154.14,88.73-158.06-91.13V1476.35l154-89v182.39ZM-2,741.85c0,17.8.23,182.76.23,182.76h.79c-7.37,7-97.19,57.16-157.71,90.24L-314,925.27l156.94-90.49-2.7-4.67-156.94,90.5V741.07l158.06-91.25,152,87.78H-9.31ZM-315.38,927.61l156,90,.65.37.67-.36c.4-.22,40.31-22,79.71-44.14C-16.87,939-2.39,929.54,1,926.35l155.07,88.93-156.72,91,2.71,4.67,156.71-91v178.1h0L.74,1289.52l-158.06-91.73L-158,1199l-157.39-90.87ZM3.44,742.36v-.53c1.25-.67,3-1.67,5.53-3.13l18.1-10.4L82,696.7l79.76-46,156.73,90.47-.23,182-158.06,91.25-1.36-.77h0L3.41,924.61h.25ZM640,926.94l156.48-90.71v178.1l-1.35.78v1.29l-155.37,90L483,1015.88l156-90.35.06,0Zm-.23-6.09V741.46l155.36-90.08v179.4ZM795.08,646.7v1.57L638.37,739.12,483.11,649.49l156.61-90.41-2.7-4.67L480.31,644.88l.23-178.1,158.06-91,157.83,90.74V645.93ZM480.42,651,637,741.46V923.59l-155.36,89.95.23-182.39L323.6,739.77l154.13-88.86.11.06,1.35.78ZM322.25,924h0l-1.33-.77.22-178.68,155.36,89.7-.22,179.28Zm154,92.64h0l-154,88.67V927.14Zm1.35-372L321.14,554l-2.71,4.67L475,649.35l-155.26,89.5L163.07,648.39V466.13l158.06-91.39,156.71,90.61ZM161.49,1018.37v-1.54l155.37-89.7v362.51l-155.37-90V1018.39h0ZM-156,1566.58V1387.3L-.61,1476.88V1656.4Zm-1.35-183.17V1204L.74,1295.75l160.75-93,155.37,90L161.5,1381.85h0l-2,1.16L.74,1474.54Zm320.16,187.84,154,88.92-154,88.92Zm156.72,90.47,155.69,89.89-155.69,89.52L164,1751.56ZM164.2,1383.42l154-88.32,156.45,90-154,88.9Zm158.05-92.21V1108.44L477.61,1019l158.06,91.25v182L480.05,1382Zm316.12,2.63,155.53,89.67-155.53,89.6-155.62-89.55Zm1.35,364.52h0v-179.8l156.71-90.28v177.91l-1.35.78v182.78l-155.36-89.83Zm162.32-641,156.5-90.61-2.7-4.67-156.71,90.74V834.66l1.34-.78V832.6L956.16,743l157.74,90.94V1016.4l-156.48,90.72Zm791.52-460.57v.5l.73.42-.15.25L1750,648.13,1593.7,738.72,1438.11,649l.23-184.33,154-89-.23,181.08Zm321.51-366,158.06-91.39V277.23l-159,92-157-89.12V99.48ZM2071.78,649c0,17.8.23,182.76.23,182.76h.78c-7.37,7-97.18,57.16-157.71,90.24l-155.37-89.58,156.93-90.49-2.69-4.68L1757,827.76V649l157.3-91.08.67-.39V557l.09,0,152,87.79h-2.69Zm5.39.51V649c1.25-.67,3-1.68,5.54-3.13l18.1-10.41c15-8.61,34.92-20.1,54.87-31.6l79.76-46,156.73,90.46-.23,182-158.06,91.26-1.35-.77h0l-155.38-89.11h.25ZM2713.69,834.1l156.48-90.72V921.49l-1.35.78v1.29l-155.37,90L2556.74,923l156-90.35.07,0Zm-.24-6.1V648.61l155.37-90.07V737.93Zm155.37-274.15v1.57L2712.1,646.28l-155.25-89.64,156.6-90.41-2.69-4.67L2554.05,552l.22-178.09,158.07-91,157.83,90.75V553.08Zm-314.66,4.35,156.6,90.41V830.74l-155.36,90,.23-182.39-158.29-91.39,154.13-88.85.11.06,1.35.78ZM2396,831.18h0l-1.33-.77.22-178.68,155.37,89.7L2550,920.69Zm154,92.63h0l-154,88.66V834.3Zm1.36-372-156.49-90.6-2.7,4.66,156.61,90.68L2393.52,646l-156.71-90.46V373.28l158.05-91.38,156.72,90.6ZM2235.23,925.53V924l155.37-89.7V1196.8l-155.37-90V925.54h0Zm-5.4-3.09-156.71,90.95,2.71,4.66,156.7-90.94v178.1h0l-158.05,91.47-158.06-91.73-.68,1.17-157.39-90.87V834.76l156,90,.66.38.66-.36c.4-.22,40.32-22,79.72-44.15,61.43-34.46,75.92-43.89,79.34-47.08Zm-475.3,827-.22-.38-156.71,90.48V1660.9l156.63-90.56,155.58,89.7Zm159.19-639.83v181l-1.34.78h0L1755.66,1382l-156.72-90.61h0V1108.83l158.48-91,156.29,90.23v1.55h0Zm-1.43-736.16v182l-155.36,89.69.22-180.07h-2.69l.67-1.17-.46-.27,3.68,0L1757,283.82Zm-160.65-89.76,1.32,179-154-89.15v-1.66l1.77-1ZM1599,554.12V376.62l152.81,88.47-.22,177Zm152.81-278.64-151.14-88.65,151.14-86.91Zm-155.59,94.86V190.47l154.12,90.4-150.84,87.58Zm158.14,459-1.35.77v.73l-153.88-89,155.23-90Zm4,736.58V1388.65l153.94,88.75v177.24Zm0-180.36v-2l154-89v179.87ZM1753.11,93.06,1599.67,4.47l153.44-88.59Zm-2.82,4.6-151.12,86.89L1599,10.28Zm-158,643.39-156.93,89.73L1280.5,741.33l156.26-90Zm-159.62-93.57L1275.1,738.22l-157.16-90.74V467.18L1276,376.05l156.94,90.46Zm-157.84-277-159.63,92L958.76,371.63l-.22-178.88,158.29,91.38,158.05-91.51Zm-315,188.1V375.4l155.37,90.22V649l158.06,91.26L1117.94,830l-159.41-91.9-1.3,2.26-.49-.84-156.27,90V649.82Zm-5.39-3.13L799.13,644.38V465.62l155.36-90Zm164.8,461V832.33L1276,741.85l.9.52.45.78.45-.26,154.13,89-157.28,90.8,2.7,4.67,156.71-90.48v178.75l-157.83,91.63Zm317.47-2.33h0V835.32h0v-2.2l155.59-89-.23,180.73h5.39l.23-180.71,153.8,88.94h0V1015L1594,1105.47Zm318.38,740.73.43.25h0l154,89.19-154.73,89.34-154.57-89.37Zm3.13-1.3,154.1-88.71v177.94ZM1915,1478.36l155.57,89.93L1916.42,1657l-1.44-.82Zm2.78-4.63V1294.45L2073.13,1384v179.51Zm-1.35-183.17V1111.17l158.06,91.74,160.76-93,155.36,90.05L2235.24,1289h0l-2,1.16-158.74,91.53Zm320.17,187.84,154,88.92-154,88.93Zm156.71,90.48L2549,1658.77l-155.69,89.51-155.59-89.57Zm-155.36-278.31,154-88.32,156.45,90-154,88.89ZM2396,1198.36V1015.59l155.36-89.44,158.06,91.26v182l-155.63,89.72Zm316.12,2.63,155.53,89.67-155.53,89.6-155.62-89.54Zm1.34,364.53h0v-179.8l156.72-90.28v177.91l-1.35.78v182.77l-155.37-89.83Zm162.33-641.06,156.49-90.61-2.7-4.66-156.71,90.73V741.82l1.35-.78v-1.29l155.69-89.64L3187.64,741V923.56l-156.49,90.72Zm472.84-646.83-159.63,92L3032.5,278.78l-.22-178.88,158.28,91.39,158.06-91.52Zm1.12,5.58,156.94,90.46-.23,181-157.61,90.73-157.16-90.73V374.33ZM3033.62,465.73V282.55L3189,372.77V556.2L3347,647.45l-155.36,89.7-159.41-91.9-1.3,2.26-.49-.85-156.27,90V557Zm-5.39-3.13-155.37,88.94V372.77l155.37-90Zm164.8,461V739.49L3349.74,649l.9.52.44.77.45-.26,154.13,89-157.27,90.8,2.7,4.67L3507.8,744V922.78L3350,1014.41Zm161.2-275.07,156.27-90,155.58,89.68-156.93,89.72ZM3350-270.57,3506.68-180l-.23,183.7L3352.66,93V-89.48l-158.17-91.33Zm-158.07,94.5,155.37,89.7V93L3191.68,3Zm153.8,271.3-155.14,89.83L3034.87,95.17,3190.33,5.29ZM3033.85-86.37V-269l155.36,89.69L3189,3,3030.92,94.34,2875.79,4.75ZM3028.46-269V-89.48L2873.09.09V-179.84Zm-154.25,457,.23-180.84,155.14,89.58.22,182.11-157.06,91,.35-.6-159.41-91.65-.23-.13V98l1.35-.77V95.51L2869.05,7.08l-.23,180.84ZM2554.05-180,2711-270.07h0l159.4,91.77V1.64l-1.35.78V4L2714.81,92.4,2715-88.19h-5.39l-.22,180.59L2554.05,2.55ZM2708.18,94.79l-156.6,90.66,2.7,4.66,156.48-90.59V277.61l-159.29,91.72-156.83-90.67V96.14L2552.7,4.89ZM2235.46-179.58l157.83-91.63,155.48,89.76-156.6,90.79,2.7,4.67,156.48-90.72V2.55L2393.29,93.81,2236.58,3.59h0l-1.35-.77ZM2076.05-86.37l156.71-90.1-.22,179.29L2075.83,93Zm-.23,184.2h0V96.14L2231.19,6.7l.23,180.82h5.39l-.23-180.8,155.36,89.43V277.36l-159,91.91-157.15-90.48Zm0,184.07,155.6,89.58V554c-51.49,29.69-144.78,83.47-156.9,90.36l-2.75-1.65v2.08h-1.23l.49-.85L1918,555.53h0V373.28ZM1757-87.79l156.83-90.68-.12.2,159.63,91.9-.22,179.54h0l-158.06,91.39L1757,93.16h0Zm-7.26-.62-152,87.77V-176.17Zm-311.42,1.3,154-89.06V6.47l1.21.7.22,177.72L1438.11,95l.23-182.13Zm155.14,278.05v178L1437,278.68l-2.69,4.67,156.38,90.16-153.91,89-159.19-91.76V191.06l1.35-.79V189l155.14-90.07ZM1276.23-177.73,1433-87.12l-.23,183.7-153.79,89.28V3.36L1120.75-88Zm-158.06,94.5,155.37,89.7v179.4L1117.94,95.8ZM1272,188.07,1116.82,277.9,961.13,188l155.46-89.89ZM960.11,6.47V-176.17l155.37,89.7-.23,182.26L957.19,187.18,802.05,97.6Zm-5.39-182.65V3.36L799.36,92.93V-87Zm-154.24,457,.22-180.85,155.14,89.59.23,182.11L799,462.58l.35-.61L639.94,370.32l-.22-.13V190.81l1.34-.78v-1.68L795.31,99.92l-.23,180.85ZM480.31-87.11l157-90.12v0L796.66-85.44V94.48l-1.34.78v1.55L641.07,185.24l.22-180.58H635.9l-.22,180.58L480.31,95.4ZM634.45,187.63,477.84,278.29l2.7,4.66L637,192.37V370.46L477.73,462.17,320.9,371.5V189L479,97.73ZM161.72-86.74l157.84-91.63L475-88.6,318.43,2.19l2.71,4.66L477.61-83.87V95.4L319.55,186.65,162.84,96.44h0l-1.34-.78ZM2.31,6.47,159-83.63,158.8,95.66,2.09,185.88ZM2.09,190.68h0V189L157.45,99.55l.23,180.81h5.39l-.22-180.8L318.21,189V370.2l-159,91.91L2.09,371.63Zm0,184.06,155.6,89.59V646.82C106.19,676.51,12.9,730.28.78,737.18L-2,735.53v2.07H-3.2l.49-.85-153.06-88.37h0V466.13ZM-316.73,5.05-159.9-85.62l-.11.2L-.38,6.47-.61,186h0l-158.06,91.38L-316.73,186h0ZM-474.56,278.83l-.23-181.1L-319.43,8V188.34h1.35l-1.35,2.34,160.76,92.94L-.61,192.24V370.07l-159,92.05-157.14-89.2v-1.53ZM-474.79,647V464.7l152.69-88.65,1.33,180.46,5.39,0L-316.71,376l155.57,88.31V648.13L-316.83,738Zm0,737.22h0V1201.68l158.48-91L-160,1200.9v1.54h0v181l-1.34.78h0l-156.71,90.61Zm158.06,641.91h0l-1.35.78-155.36-89.83,156.71-90.48-2.7-4.67-156.71,90.48V1753l156.83-90.28,157.94,91.06v182.52l-155.36,89.82ZM-157.32,2118h0L-314,2027.66l155.37-89.83L-2,2028.44Zm1.35-181.73V1752.21l154-88.67v182.25l158.29,91.39L.74,2026.88Zm316.12,181L4.67,2027.73l155.48-89.64,155.47,89.64Zm317-181.47-157.62,91.12-158.07-91.12v-179.4l158.07,91,158-90.87ZM322.25,1660.17v-184l155.1-89.55L637,1478.56v178.23l-156.7-90.87-2.71,4.67,156.71,90.87L479,1750.65Zm158.05,94.76h0V1753L637,1663h0l1.35-.78,158.06,91.39v179l-158.06-91.14-158.49,91.13Zm159.42,271-.12.2-1.23.71-155.8-89.57,155.8-89.58,155.36,89.58L639.83,2026Zm159.4,92h0l-156.6-90.41,153.9-88.73h0l1.35.78,1.34-.78,155.37,89.57Zm156.72-91.9-154-88.8,154-89Zm0-368.27-154-88.55,154-88.83Zm0-183.61L802,1385.07,958.42,1295l156.83,90.67v179.14l-156.71-90.53-1.35-.77Zm2.7,551.87h0v-179.4l155.36,89.82L958.54,2026.1Zm316.11.52-158.05,90.87-155.37-89.83,155.36-89.57h0l.44-.26.24-.13h0l1.35-.78h.67v-.39l155.36-90Zm0-184.72v1.56l-155.36,90v-179l155.36-89.83Zm0-367.62-1.35.78v182.51l-155.37-89.7V1387.18l159.41-92.08h0l154,88.84Zm317.47,553.24L1434.07,2118l.56,1-157.28-91.31V1846.58l155.37,90.33h0l2.68,1.56,2.69-1.56h0l155.34-89.82Zm1.34-183.54-155.36,89.83V1754.54l155.36-90Zm.22-185.24-.22-.39-.23.13-153.67-89,156.59-90.28-2.69-4.67-156.71,90.34v-179.4l156.6-90.54,158.17,91.32v182.14l-156,89.78-.68.39v.77l-.08,0Zm157.84,459.14c-51-29.43-139.94-80.73-154-89l1.33-182.38,153.31,88.64-.63.37Zm5.39-178.45,154.76,89.23-154.76,89.22Zm159.49,85.73h0l-1.43-.82V1845l.09,0,156.71,90.61Zm1.35-181.73V1659.36l154-88.66V1753l158.28,91.39L2074.48,1934Zm316.12,181-155.47-89.5,155.47-89.63,155.48,89.63Zm317-181.47L2393.29,1934l-158.06-91.13v-179.4l158.06,91,158.05-90.87ZM2396,1567.33v-184l155.1-89.54,159.67,91.88v178.23l-156.71-90.86-2.7,4.66,156.71,90.87L2552.7,1657.8ZM2554,1662.08h0v-1.94l156.7-90h0l1.35-.77,158.07,91.39v179l-158.06-91.14-158.5,91.13Zm159.41,271.05-.11.2-1.23.71-155.8-89.57,155.79-89.58,155.36,89.58-153.89,88.72Zm159.41,92h0l-156.59-90.41,153.9-88.72h0l1.35.77,1.34-.77,155.36,89.56Zm156.72-91.9-154-88.79,154-89Zm0-368.26-154-88.55,154-88.84Zm0-183.61-153.85-89.17,156.43-90.11L3189,1292.78v179.13l-156.71-90.52-1.35-.78Zm2.69,551.87h0v-179.4l155.36,89.83-155.36,89.57Zm316.12.52-158.06,90.87L3035,1934.82l155.36-89.57h0l.44-.25.23-.14h0l1.36-.78h.67v-.39l155.36-90Zm0-184.73v1.57l-155.36,90v-179l155.36-89.83Zm0-367.61-1.35.77v182.52L3191.68,1475V1294.34l159.41-92.08h0l154,88.84Zm317.48,553.23-158.06,90.49.55,1-157.27-91.31V1753.74l155.36,90.33h0l2.69,1.55,2.69-1.55h0l155.35-89.82Zm1.34-183.54L3511.84,1841V1661.69l155.37-90ZM3986,1935.46,3830.66,2025V1845.76L3986,1756.07Zm-2.69-184.07-158.06,91.26V2025c-51-29.42-139.94-80.72-154-89l1.35-184.62h-.48l155.84-90,1.35.78h0ZM3830.66,1295,3986,1384.55v181l-155.36-89.58Zm152.89,272.22-156.93,90.34.67,1.17-157.39,90.86v-179.4h0v-1.29L3828,1477.49Zm-158.28-273.77v182.51h0l-156.71,90.61-1.13-.65-.22-.39-.23.13-153.68-89,156.6-90.28-2.69-4.67-156.71,90.35v-179.4l156.59-90.54Zm0-553.16h0V924.2h0l-155.37,89.7-159.4-92.67h0V742.47h0v-2.19l155.6-89L3665.86,832h5.39l.23-180.71Zm-157.83-94.39-155.6-89.68.23-184.34,154-89-.22,181.08h2.7l-.68,1.17,155.82,90.22Zm157.83-92.8-154-89.18.23-180.82,154,89.16ZM3671.48,280v-.27L3828,189.35,3986,280.61V463.12l-155.36,90,.23-180.83h-2.7l.68-1.16Z" transform="translate(480.18 274.73)"/></g></svg>